<svg id="visual" viewBox="0 0 960 540" width="960" height="540" xmlns="http://www.w3.org/2000/svg" xmlns:xlink="http://www.w3.org/1999/xlink" version="1.1"><rect x="0" y="0" width="960" height="540" fill="#ffffff"></rect><defs><linearGradient id="grad1_0" x1="43.8%" y1="0%" x2="100%" y2="100%"><stop offset="14.444444444444446%" stop-color="#ffffff" stop-opacity="1"></stop><stop offset="85.55555555555554%" stop-color="#ffffff" stop-opacity="1"></stop></linearGradient></defs><defs><linearGradient id="grad2_0" x1="0%" y1="0%" x2="56.3%" y2="100%"><stop offset="14.444444444444446%" stop-color="#ffffff" stop-opacity="1"></stop><stop offset="85.55555555555554%" stop-color="#ffffff" stop-opacity="1"></stop></linearGradient></defs><g transform="translate(960, 0)"><path d="M0 405C-36 387.8 -71.9 370.6 -118.4 364.3C-164.8 357.9 -221.7 362.5 -238.1 327.7C-254.4 292.9 -230.2 218.7 -249.2 181C-268.1 143.4 -330.1 142.1 -363.3 118C-396.5 93.9 -400.7 47 -405 0L0 0Z" fill="#7cbbff"></path></g><g transform="translate(0, 540)"><path d="M0 -405C32.7 -370.1 65.5 -335.1 106.3 -327.2C147.1 -319.2 196 -338.2 238.1 -327.7C280.1 -317.1 315.2 -277 320.4 -232.8C325.6 -188.5 300.9 -140.2 310 -100.7C319.2 -61.3 362.1 -30.6 405 0L0 0Z" fill="#7cbbff"></path></g></svg>