<svg id="visual" viewBox="0 0 1920 1080" width="1920" height="1080" xmlns="http://www.w3.org/2000/svg" xmlns:xlink="http://www.w3.org/1999/xlink" version="1.1"><rect x="0" y="0" width="1920" height="1080" fill="#ffffff"></rect><defs><linearGradient id="grad1_0" x1="43.8%" y1="0%" x2="100%" y2="100%"><stop offset="14.444444444444446%" stop-color="#3cc6fa" stop-opacity="1"></stop><stop offset="85.55555555555554%" stop-color="#3cc6fa" stop-opacity="1"></stop></linearGradient></defs><defs><linearGradient id="grad1_1" x1="43.8%" y1="0%" x2="100%" y2="100%"><stop offset="14.444444444444446%" stop-color="#3cc6fa" stop-opacity="1"></stop><stop offset="85.55555555555554%" stop-color="#93d9fc" stop-opacity="1"></stop></linearGradient></defs><defs><linearGradient id="grad1_2" x1="43.8%" y1="0%" x2="100%" y2="100%"><stop offset="14.444444444444446%" stop-color="#ccecfe" stop-opacity="1"></stop><stop offset="85.55555555555554%" stop-color="#93d9fc" stop-opacity="1"></stop></linearGradient></defs><defs><linearGradient id="grad1_3" x1="43.8%" y1="0%" x2="100%" y2="100%"><stop offset="14.444444444444446%" stop-color="#ccecfe" stop-opacity="1"></stop><stop offset="85.55555555555554%" stop-color="#ffffff" stop-opacity="1"></stop></linearGradient></defs><defs><linearGradient id="grad2_0" x1="0%" y1="0%" x2="56.3%" y2="100%"><stop offset="14.444444444444446%" stop-color="#3cc6fa" stop-opacity="1"></stop><stop offset="85.55555555555554%" stop-color="#3cc6fa" stop-opacity="1"></stop></linearGradient></defs><defs><linearGradient id="grad2_1" x1="0%" y1="0%" x2="56.3%" y2="100%"><stop offset="14.444444444444446%" stop-color="#93d9fc" stop-opacity="1"></stop><stop offset="85.55555555555554%" stop-color="#3cc6fa" stop-opacity="1"></stop></linearGradient></defs><defs><linearGradient id="grad2_2" x1="0%" y1="0%" x2="56.3%" y2="100%"><stop offset="14.444444444444446%" stop-color="#93d9fc" stop-opacity="1"></stop><stop offset="85.55555555555554%" stop-color="#ccecfe" stop-opacity="1"></stop></linearGradient></defs><defs><linearGradient id="grad2_3" x1="0%" y1="0%" x2="56.3%" y2="100%"><stop offset="14.444444444444446%" stop-color="#ffffff" stop-opacity="1"></stop><stop offset="85.55555555555554%" stop-color="#ccecfe" stop-opacity="1"></stop></linearGradient></defs><g transform="translate(1920, 0)"><path d="M0 972C-70.7 871.1 -141.3 770.1 -246 757C-350.6 744 -489.2 818.8 -571.3 786.4C-653.4 754 -679 614.4 -701.4 509.6C-723.8 404.9 -742.9 335 -787.5 255.9C-832 176.7 -902 88.4 -972 0L0 0Z" fill="#e6f5fe"></path><path d="M0 729C-53 653.3 -106 577.6 -184.5 567.8C-263 558 -366.9 614.1 -428.5 589.8C-490.1 565.5 -509.3 460.8 -526.1 382.2C-542.8 303.7 -557.2 251.2 -590.6 191.9C-624 132.6 -676.5 66.3 -729 0L0 0Z" fill="#b1e2fd"></path><path d="M0 486C-35.3 435.5 -70.7 385.1 -123 378.5C-175.3 372 -244.6 409.4 -285.7 393.2C-326.7 377 -339.5 307.2 -350.7 254.8C-361.9 202.4 -371.5 167.5 -393.7 127.9C-416 88.4 -451 44.2 -486 0L0 0Z" fill="#6fcffb"></path><path d="M0 243C-17.7 217.8 -35.3 192.5 -61.5 189.3C-87.7 186 -122.3 204.7 -142.8 196.6C-163.4 188.5 -169.8 153.6 -175.4 127.4C-180.9 101.2 -185.7 83.7 -196.9 64C-208 44.2 -225.5 22.1 -243 0L0 0Z" fill="#3cc6fa"></path></g><g transform="translate(0, 1080)"><path d="M0 -972C113.7 -969.5 227.4 -967 290.8 -894.9C354.1 -822.9 367.1 -681.4 458.5 -631C549.8 -580.6 719.5 -621.4 786.4 -571.3C853.3 -521.3 817.4 -380.4 831.2 -270.1C845 -159.7 908.5 -79.9 972 0L0 0Z" fill="#e6f5fe"></path><path d="M0 -729C85.3 -727.1 170.6 -725.2 218.1 -671.2C265.6 -617.2 275.4 -511.1 343.9 -473.3C412.4 -435.5 539.6 -466 589.8 -428.5C639.9 -391 613.1 -285.3 623.4 -202.6C633.8 -119.8 681.4 -59.9 729 0L0 0Z" fill="#b1e2fd"></path><path d="M0 -486C56.9 -484.7 113.7 -483.5 145.4 -447.5C177.1 -411.5 183.6 -340.7 229.2 -315.5C274.9 -290.3 359.7 -310.7 393.2 -285.7C426.6 -260.6 408.7 -190.2 415.6 -135C422.5 -79.9 454.3 -39.9 486 0L0 0Z" fill="#6fcffb"></path><path d="M0 -243C28.4 -242.4 56.9 -241.7 72.7 -223.7C88.5 -205.7 91.8 -170.4 114.6 -157.8C137.5 -145.2 179.9 -155.3 196.6 -142.8C213.3 -130.3 204.4 -95.1 207.8 -67.5C211.3 -39.9 227.1 -20 243 0L0 0Z" fill="#3cc6fa"></path></g></svg>