<svg id="visual" viewBox="0 0 960 540" width="960" height="540" xmlns="http://www.w3.org/2000/svg" xmlns:xlink="http://www.w3.org/1999/xlink" version="1.1"><path d="M0 50L13.3 52.7C26.7 55.3 53.3 60.7 80 71.3C106.7 82 133.3 98 160 124C186.7 150 213.3 186 240 187.8C266.7 189.7 293.3 157.3 320 155.7C346.7 154 373.3 183 400 170.5C426.7 158 453.3 104 480 95C506.7 86 533.3 122 560 130C586.7 138 613.3 118 640 109C666.7 100 693.3 102 720 94C746.7 86 773.3 68 800 57.2C826.7 46.3 853.3 42.7 880 38.2C906.7 33.7 933.3 28.3 946.7 25.7L960 23L960 0L946.7 0C933.3 0 906.7 0 880 0C853.3 0 826.7 0 800 0C773.3 0 746.7 0 720 0C693.3 0 666.7 0 640 0C613.3 0 586.7 0 560 0C533.3 0 506.7 0 480 0C453.3 0 426.7 0 400 0C373.3 0 346.7 0 320 0C293.3 0 266.7 0 240 0C213.3 0 186.7 0 160 0C133.3 0 106.7 0 80 0C53.3 0 26.7 0 13.3 0L0 0Z" fill="#ffffff"></path><path d="M0 77L13.3 86.8C26.7 96.7 53.3 116.3 80 167.5C106.7 218.7 133.3 301.3 160 334.7C186.7 368 213.3 352 240 310.7C266.7 269.3 293.3 202.7 320 201.7C346.7 200.7 373.3 265.3 400 298.7C426.7 332 453.3 334 480 346.7C506.7 359.3 533.3 382.7 560 380.8C586.7 379 613.3 352 640 303.3C666.7 254.7 693.3 184.3 720 187C746.7 189.7 773.3 265.3 800 265.3C826.7 265.3 853.3 189.7 880 150.2C906.7 110.7 933.3 107.3 946.7 105.7L960 104L960 21L946.7 23.7C933.3 26.3 906.7 31.7 880 36.2C853.3 40.7 826.7 44.3 800 55.2C773.3 66 746.7 84 720 92C693.3 100 666.7 98 640 107C613.3 116 586.7 136 560 128C533.3 120 506.7 84 480 93C453.3 102 426.7 156 400 168.5C373.3 181 346.7 152 320 153.7C293.3 155.3 266.7 187.7 240 185.8C213.3 184 186.7 148 160 122C133.3 96 106.7 80 80 69.3C53.3 58.7 26.7 53.3 13.3 50.7L0 48Z" fill="#edf3fd"></path><path d="M0 341L13.3 334.7C26.7 328.3 53.3 315.7 80 325.7C106.7 335.7 133.3 368.3 160 398.2C186.7 428 213.3 455 240 433.3C266.7 411.7 293.3 341.3 320 336.8C346.7 332.3 373.3 393.7 400 407.2C426.7 420.7 453.3 386.3 480 383.5C506.7 380.7 533.3 409.3 560 411.2C586.7 413 613.3 388 640 389.8C666.7 391.7 693.3 420.3 720 416.7C746.7 413 773.3 377 800 353.7C826.7 330.3 853.3 319.7 880 319.7C906.7 319.7 933.3 330.3 946.7 335.7L960 341L960 102L946.7 103.7C933.3 105.3 906.7 108.7 880 148.2C853.3 187.7 826.7 263.3 800 263.3C773.3 263.3 746.7 187.7 720 185C693.3 182.3 666.7 252.7 640 301.3C613.3 350 586.7 377 560 378.8C533.3 380.7 506.7 357.3 480 344.7C453.3 332 426.7 330 400 296.7C373.3 263.3 346.7 198.7 320 199.7C293.3 200.7 266.7 267.3 240 308.7C213.3 350 186.7 366 160 332.7C133.3 299.3 106.7 216.7 80 165.5C53.3 114.3 26.7 94.7 13.3 84.8L0 75Z" fill="#dbe7fc"></path><path d="M0 352L13.3 367.3C26.7 382.7 53.3 413.3 80 421.5C106.7 429.7 133.3 415.3 160 423.3C186.7 431.3 213.3 461.7 240 458.8C266.7 456 293.3 420 320 416.5C346.7 413 373.3 442 400 456.5C426.7 471 453.3 471 480 473.7C506.7 476.3 533.3 481.7 560 481.7C586.7 481.7 613.3 476.3 640 470C666.7 463.7 693.3 456.3 720 436.5C746.7 416.7 773.3 384.3 800 381.7C826.7 379 853.3 406 880 413.2C906.7 420.3 933.3 407.7 946.7 401.3L960 395L960 339L946.7 333.7C933.3 328.3 906.7 317.7 880 317.7C853.3 317.7 826.7 328.3 800 351.7C773.3 375 746.7 411 720 414.7C693.3 418.3 666.7 389.7 640 387.8C613.3 386 586.7 411 560 409.2C533.3 407.3 506.7 378.7 480 381.5C453.3 384.3 426.7 418.7 400 405.2C373.3 391.7 346.7 330.3 320 334.8C293.3 339.3 266.7 409.7 240 431.3C213.3 453 186.7 426 160 396.2C133.3 366.3 106.7 333.7 80 323.7C53.3 313.7 26.7 326.3 13.3 332.7L0 339Z" fill="#c9dbfa"></path><path d="M0 460L13.3 472.7C26.7 485.3 53.3 510.7 80 510.7C106.7 510.7 133.3 485.3 160 485.3C186.7 485.3 213.3 510.7 240 515.2C266.7 519.7 293.3 503.3 320 497.8C346.7 492.3 373.3 497.7 400 495C426.7 492.3 453.3 481.7 480 488C506.7 494.3 533.3 517.7 560 522.2C586.7 526.7 613.3 512.3 640 498C666.7 483.7 693.3 469.3 720 460.3C746.7 451.3 773.3 447.7 800 445.8C826.7 444 853.3 444 880 453C906.7 462 933.3 480 946.7 489L960 498L960 393L946.7 399.3C933.3 405.7 906.7 418.3 880 411.2C853.3 404 826.7 377 800 379.7C773.3 382.3 746.7 414.7 720 434.5C693.3 454.3 666.7 461.7 640 468C613.3 474.3 586.7 479.7 560 479.7C533.3 479.7 506.7 474.3 480 471.7C453.3 469 426.7 469 400 454.5C373.3 440 346.7 411 320 414.5C293.3 418 266.7 454 240 456.8C213.3 459.7 186.7 429.3 160 421.3C133.3 413.3 106.7 427.7 80 419.5C53.3 411.3 26.7 380.7 13.3 365.3L0 350Z" fill="#b6cff9"></path><path d="M0 541L13.3 541C26.7 541 53.3 541 80 541C106.7 541 133.3 541 160 541C186.7 541 213.3 541 240 541C266.7 541 293.3 541 320 541C346.7 541 373.3 541 400 541C426.7 541 453.3 541 480 541C506.7 541 533.3 541 560 541C586.7 541 613.3 541 640 541C666.7 541 693.3 541 720 541C746.7 541 773.3 541 800 541C826.7 541 853.3 541 880 541C906.7 541 933.3 541 946.7 541L960 541L960 496L946.7 487C933.3 478 906.7 460 880 451C853.3 442 826.7 442 800 443.8C773.3 445.7 746.7 449.3 720 458.3C693.3 467.3 666.7 481.7 640 496C613.3 510.3 586.7 524.7 560 520.2C533.3 515.7 506.7 492.3 480 486C453.3 479.7 426.7 490.3 400 493C373.3 495.7 346.7 490.3 320 495.8C293.3 501.3 266.7 517.7 240 513.2C213.3 508.7 186.7 483.3 160 483.3C133.3 483.3 106.7 508.7 80 508.7C53.3 508.7 26.7 483.3 13.3 470.7L0 458Z" fill="#a2c4f7"></path></svg>