<svg id="visual" viewBox="0 0 1920 1080" width="1920" height="1080" xmlns="http://www.w3.org/2000/svg" xmlns:xlink="http://www.w3.org/1999/xlink" version="1.1"><path d="M0 260L29.2 236.7C58.3 213.3 116.7 166.7 174.8 148.7C233 130.7 291 141.3 349.2 159.3C407.3 177.3 465.7 202.7 523.8 200.8C582 199 640 170 698.2 162.8C756.3 155.7 814.7 170.3 872.8 184.8C931 199.3 989 213.7 1047.2 201C1105.3 188.3 1163.7 148.7 1221.8 152.2C1280 155.7 1338 202.3 1396.2 213.2C1454.3 224 1512.7 199 1570.8 181C1629 163 1687 152 1745.2 139.3C1803.3 126.7 1861.7 112.3 1890.8 105.2L1920 98L1920 0L1890.8 0C1861.7 0 1803.3 0 1745.2 0C1687 0 1629 0 1570.8 0C1512.7 0 1454.3 0 1396.2 0C1338 0 1280 0 1221.8 0C1163.7 0 1105.3 0 1047.2 0C989 0 931 0 872.8 0C814.7 0 756.3 0 698.2 0C640 0 582 0 523.8 0C465.7 0 407.3 0 349.2 0C291 0 233 0 174.8 0C116.7 0 58.3 0 29.2 0L0 0Z" fill="#ffffff"></path><path d="M0 422L29.2 402.2C58.3 382.3 116.7 342.7 174.8 328.3C233 314 291 325 349.2 368.3C407.3 411.7 465.7 487.3 523.8 510.7C582 534 640 505 698.2 503.2C756.3 501.3 814.7 526.7 872.8 526.7C931 526.7 989 501.3 1047.2 463.5C1105.3 425.7 1163.7 375.3 1221.8 389.8C1280 404.3 1338 483.7 1396.2 526.8C1454.3 570 1512.7 577 1570.8 577C1629 577 1687 570 1745.2 525C1803.3 480 1861.7 397 1890.8 355.5L1920 314L1920 96L1890.8 103.2C1861.7 110.3 1803.3 124.7 1745.2 137.3C1687 150 1629 161 1570.8 179C1512.7 197 1454.3 222 1396.2 211.2C1338 200.3 1280 153.7 1221.8 150.2C1163.7 146.7 1105.3 186.3 1047.2 199C989 211.7 931 197.3 872.8 182.8C814.7 168.3 756.3 153.7 698.2 160.8C640 168 582 197 523.8 198.8C465.7 200.7 407.3 175.3 349.2 157.3C291 139.3 233 128.7 174.8 146.7C116.7 164.7 58.3 211.3 29.2 234.7L0 258Z" fill="#f2fcff"></path><path d="M0 779L29.2 789.7C58.3 800.3 116.7 821.7 174.8 828.8C233 836 291 829 349.2 841.7C407.3 854.3 465.7 886.7 523.8 881.2C582 875.7 640 832.3 698.2 818C756.3 803.7 814.7 818.3 872.8 834.7C931 851 989 869 1047.2 852.7C1105.3 836.3 1163.7 785.7 1221.8 778.3C1280 771 1338 807 1396.2 808.8C1454.3 810.7 1512.7 778.3 1570.8 762.2C1629 746 1687 746 1745.2 762.2C1803.3 778.3 1861.7 810.7 1890.8 826.8L1920 843L1920 312L1890.8 353.5C1861.7 395 1803.3 478 1745.2 523C1687 568 1629 575 1570.8 575C1512.7 575 1454.3 568 1396.2 524.8C1338 481.7 1280 402.3 1221.8 387.8C1163.7 373.3 1105.3 423.7 1047.2 461.5C989 499.3 931 524.7 872.8 524.7C814.7 524.7 756.3 499.3 698.2 501.2C640 503 582 532 523.8 508.7C465.7 485.3 407.3 409.7 349.2 366.3C291 323 233 312 174.8 326.3C116.7 340.7 58.3 380.3 29.2 400.2L0 420Z" fill="#e5f8ff"></path><path d="M0 1016L29.2 1007C58.3 998 116.7 980 174.8 969.2C233 958.3 291 954.7 349.2 960.2C407.3 965.7 465.7 980.3 523.8 978.7C582 977 640 959 698.2 942.7C756.3 926.3 814.7 911.7 872.8 915.2C931 918.7 989 940.3 1047.2 945.8C1105.3 951.3 1163.7 940.7 1221.8 946.2C1280 951.7 1338 973.3 1396.2 978.7C1454.3 984 1512.7 973 1570.8 964C1629 955 1687 948 1745.2 944.5C1803.3 941 1861.7 941 1890.8 941L1920 941L1920 841L1890.8 824.8C1861.7 808.7 1803.3 776.3 1745.2 760.2C1687 744 1629 744 1570.8 760.2C1512.7 776.3 1454.3 808.7 1396.2 806.8C1338 805 1280 769 1221.8 776.3C1163.7 783.7 1105.3 834.3 1047.2 850.7C989 867 931 849 872.8 832.7C814.7 816.3 756.3 801.7 698.2 816C640 830.3 582 873.7 523.8 879.2C465.7 884.7 407.3 852.3 349.2 839.7C291 827 233 834 174.8 826.8C116.7 819.7 58.3 798.3 29.2 787.7L0 777Z" fill="#d8f5ff"></path><path d="M0 1081L29.2 1081C58.3 1081 116.7 1081 174.8 1081C233 1081 291 1081 349.2 1081C407.3 1081 465.7 1081 523.8 1081C582 1081 640 1081 698.2 1081C756.3 1081 814.7 1081 872.8 1081C931 1081 989 1081 1047.2 1081C1105.3 1081 1163.7 1081 1221.8 1081C1280 1081 1338 1081 1396.2 1081C1454.3 1081 1512.7 1081 1570.8 1081C1629 1081 1687 1081 1745.2 1081C1803.3 1081 1861.7 1081 1890.8 1081L1920 1081L1920 939L1890.8 939C1861.7 939 1803.3 939 1745.2 942.5C1687 946 1629 953 1570.8 962C1512.7 971 1454.3 982 1396.2 976.7C1338 971.3 1280 949.7 1221.8 944.2C1163.7 938.7 1105.3 949.3 1047.2 943.8C989 938.3 931 916.7 872.8 913.2C814.7 909.7 756.3 924.3 698.2 940.7C640 957 582 975 523.8 976.7C465.7 978.3 407.3 963.7 349.2 958.2C291 952.7 233 956.3 174.8 967.2C116.7 978 58.3 996 29.2 1005L0 1014Z" fill="#caf1ff"></path></svg>