<svg id="visual" viewBox="0 0 638 1013" width="638" height="1013" xmlns="http://www.w3.org/2000/svg" xmlns:xlink="http://www.w3.org/1999/xlink" version="1.1"><g stroke-width="1" stroke-linejoin="bevel"><path d="M319 462.5L339 353.9L304 463.2Z" fill="#972527" stroke="#972527"></path><path d="M319 462.5L390.3 410.2L339 353.9Z" fill="#a62929" stroke="#a62929"></path><path d="M339 353.9L215.7 382.2L304 463.2Z" fill="#1c0000" stroke="#1c0000"></path><path d="M304 463.2L372 540.8L319 462.5Z" fill="#1c0000" stroke="#1c0000"></path><path d="M319 462.5L372 540.8L390.3 410.2Z" fill="#330e10" stroke="#330e10"></path><path d="M272.7 610.8L372 540.8L304 463.2Z" fill="#882125" stroke="#882125"></path><path d="M215.7 382.2L196.7 512.5L304 463.2Z" fill="#401115" stroke="#401115"></path><path d="M372 540.8L471.3 435.5L390.3 410.2Z" fill="#972527" stroke="#972527"></path><path d="M390.3 410.2L484.7 356.2L339 353.9Z" fill="#1c0000" stroke="#1c0000"></path><path d="M157.3 241.6L151.7 311.9L215.7 382.2Z" fill="#401115" stroke="#401115"></path><path d="M215.7 382.2L121.3 457.5L196.7 512.5Z" fill="#401115" stroke="#401115"></path><path d="M471.3 435.5L484.7 356.2L390.3 410.2Z" fill="#791e22" stroke="#791e22"></path><path d="M339 353.9L157.3 241.6L215.7 382.2Z" fill="#a62929" stroke="#a62929"></path><path d="M463.3 249.6L381.3 231.9L339 353.9Z" fill="#791e22" stroke="#791e22"></path><path d="M110.3 351.9L120.3 410.2L215.7 382.2Z" fill="#882125" stroke="#882125"></path><path d="M120.3 410.2L121.3 457.5L215.7 382.2Z" fill="#5c171c" stroke="#5c171c"></path><path d="M151.7 311.9L110.3 351.9L215.7 382.2Z" fill="#972527" stroke="#972527"></path><path d="M120.3 410.2L0 400.2L121.3 457.5Z" fill="#972527" stroke="#972527"></path><path d="M90.3 606.8L272.7 610.8L196.7 512.5Z" fill="#a62929" stroke="#a62929"></path><path d="M196.7 512.5L272.7 610.8L304 463.2Z" fill="#4e1418" stroke="#4e1418"></path><path d="M484.7 356.2L463.3 249.6L339 353.9Z" fill="#a62929" stroke="#a62929"></path><path d="M200.7 170.6L157.3 241.6L339 353.9Z" fill="#330e10" stroke="#330e10"></path><path d="M151.7 311.9L0 247.9L110.3 351.9Z" fill="#791e22" stroke="#791e22"></path><path d="M423.3 649.8L512.7 502.5L372 540.8Z" fill="#5c171c" stroke="#5c171c"></path><path d="M372 540.8L512.7 502.5L471.3 435.5Z" fill="#270908" stroke="#270908"></path><path d="M471.3 435.5L638 340.2L484.7 356.2Z" fill="#a62929" stroke="#a62929"></path><path d="M381.3 231.9L200.7 170.6L339 353.9Z" fill="#a62929" stroke="#a62929"></path><path d="M363 135.6L200.7 170.6L381.3 231.9Z" fill="#882125" stroke="#882125"></path><path d="M272.7 610.8L376 658.1L372 540.8Z" fill="#4e1418" stroke="#4e1418"></path><path d="M376 658.1L423.3 649.8L372 540.8Z" fill="#5c171c" stroke="#5c171c"></path><path d="M463.3 249.6L363 135.6L381.3 231.9Z" fill="#972527" stroke="#972527"></path><path d="M484.7 356.2L550.7 260.9L463.3 249.6Z" fill="#972527" stroke="#972527"></path><path d="M463.3 249.6L372 116.3L363 135.6Z" fill="#972527" stroke="#972527"></path><path d="M638 340.2L550.7 260.9L484.7 356.2Z" fill="#401115" stroke="#401115"></path><path d="M546.7 117.3L372 116.3L463.3 249.6Z" fill="#882125" stroke="#882125"></path><path d="M363 135.6L230.7 0L200.7 170.6Z" fill="#401115" stroke="#401115"></path><path d="M121.3 457.5L90.3 606.8L196.7 512.5Z" fill="#1c0000" stroke="#1c0000"></path><path d="M272.7 610.8L193.7 695.1L376 658.1Z" fill="#6a1a1f" stroke="#6a1a1f"></path><path d="M0 566.5L90.3 606.8L121.3 457.5Z" fill="#882125" stroke="#882125"></path><path d="M230.7 0L146.7 153.3L200.7 170.6Z" fill="#401115" stroke="#401115"></path><path d="M200.7 170.6L146.7 153.3L157.3 241.6Z" fill="#4e1418" stroke="#4e1418"></path><path d="M0 247.9L0 400.2L110.3 351.9Z" fill="#a62929" stroke="#a62929"></path><path d="M0 247.9L151.7 311.9L157.3 241.6Z" fill="#4e1418" stroke="#4e1418"></path><path d="M110.3 351.9L0 400.2L120.3 410.2Z" fill="#5c171c" stroke="#5c171c"></path><path d="M90.3 606.8L193.7 695.1L272.7 610.8Z" fill="#972527" stroke="#972527"></path><path d="M376 658.1L399.3 724.1L423.3 649.8Z" fill="#a62929" stroke="#a62929"></path><path d="M316 823.4L399.3 724.1L376 658.1Z" fill="#882125" stroke="#882125"></path><path d="M638 549.8L638 490.5L512.7 502.5Z" fill="#401115" stroke="#401115"></path><path d="M638 490.5L471.3 435.5L512.7 502.5Z" fill="#1c0000" stroke="#1c0000"></path><path d="M638 490.5L638 340.2L471.3 435.5Z" fill="#972527" stroke="#972527"></path><path d="M638 305.9L559.7 181.6L550.7 260.9Z" fill="#a62929" stroke="#a62929"></path><path d="M550.7 260.9L559.7 181.6L463.3 249.6Z" fill="#791e22" stroke="#791e22"></path><path d="M539.7 672.1L512.7 502.5L423.3 649.8Z" fill="#270908" stroke="#270908"></path><path d="M638 340.2L638 305.9L550.7 260.9Z" fill="#4e1418" stroke="#4e1418"></path><path d="M90.3 606.8L87.3 668.1L193.7 695.1Z" fill="#270908" stroke="#270908"></path><path d="M0 654.8L87.3 668.1L90.3 606.8Z" fill="#791e22" stroke="#791e22"></path><path d="M146.7 153.3L0 247.9L157.3 241.6Z" fill="#4e1418" stroke="#4e1418"></path><path d="M0 400.2L0 566.5L121.3 457.5Z" fill="#270908" stroke="#270908"></path><path d="M399.3 724.1L539.7 672.1L423.3 649.8Z" fill="#270908" stroke="#270908"></path><path d="M539.7 672.1L638 549.8L512.7 502.5Z" fill="#330e10" stroke="#330e10"></path><path d="M87.3 668.1L187.7 744.4L193.7 695.1Z" fill="#1c0000" stroke="#1c0000"></path><path d="M193.7 695.1L316 823.4L376 658.1Z" fill="#a62929" stroke="#a62929"></path><path d="M546.7 117.3L379.3 44.3L372 116.3Z" fill="#5c171c" stroke="#5c171c"></path><path d="M372 116.3L230.7 0L363 135.6Z" fill="#882125" stroke="#882125"></path><path d="M638 150.6L546.7 117.3L559.7 181.6Z" fill="#a62929" stroke="#a62929"></path><path d="M559.7 181.6L546.7 117.3L463.3 249.6Z" fill="#791e22" stroke="#791e22"></path><path d="M160.3 0L63.3 114.3L146.7 153.3Z" fill="#5c171c" stroke="#5c171c"></path><path d="M146.7 153.3L63.3 114.3L0 247.9Z" fill="#5c171c" stroke="#5c171c"></path><path d="M549.7 792.4L598.7 674.8L539.7 672.1Z" fill="#330e10" stroke="#330e10"></path><path d="M539.7 672.1L598.7 674.8L638 549.8Z" fill="#791e22" stroke="#791e22"></path><path d="M0 566.5L0 654.8L90.3 606.8Z" fill="#401115" stroke="#401115"></path><path d="M87.3 668.1L150.3 866.4L187.7 744.4Z" fill="#270908" stroke="#270908"></path><path d="M63.3 114.3L0 149.6L0 247.9Z" fill="#6a1a1f" stroke="#6a1a1f"></path><path d="M63.3 114.3L0 146.3L0 149.6Z" fill="#4e1418" stroke="#4e1418"></path><path d="M389.3 0L346 0L379.3 44.3Z" fill="#972527" stroke="#972527"></path><path d="M379.3 44.3L346 0L372 116.3Z" fill="#401115" stroke="#401115"></path><path d="M346 0L230.7 0L372 116.3Z" fill="#1c0000" stroke="#1c0000"></path><path d="M63.3 114.3L0 0L0 146.3Z" fill="#401115" stroke="#401115"></path><path d="M521.7 0L389.3 0L379.3 44.3Z" fill="#5c171c" stroke="#5c171c"></path><path d="M638 305.9L638 150.6L559.7 181.6Z" fill="#791e22" stroke="#791e22"></path><path d="M546.7 117.3L521.7 0L379.3 44.3Z" fill="#972527" stroke="#972527"></path><path d="M0 654.8L0 687.1L87.3 668.1Z" fill="#270908" stroke="#270908"></path><path d="M187.7 744.4L316 823.4L193.7 695.1Z" fill="#5c171c" stroke="#5c171c"></path><path d="M399.3 724.1L549.7 792.4L539.7 672.1Z" fill="#882125" stroke="#882125"></path><path d="M150.3 866.4L316 823.4L187.7 744.4Z" fill="#972527" stroke="#972527"></path><path d="M230.7 0L160.3 0L146.7 153.3Z" fill="#a62929" stroke="#a62929"></path><path d="M356.3 855.7L361 844.7L316 823.4Z" fill="#882125" stroke="#882125"></path><path d="M316 823.4L361 844.7L399.3 724.1Z" fill="#882125" stroke="#882125"></path><path d="M221.7 912.7L356.3 855.7L316 823.4Z" fill="#5c171c" stroke="#5c171c"></path><path d="M452.3 870.4L549.7 792.4L399.3 724.1Z" fill="#4e1418" stroke="#4e1418"></path><path d="M452.3 870.4L399.3 724.1L361 844.7Z" fill="#882125" stroke="#882125"></path><path d="M638 62.3L521.7 0L546.7 117.3Z" fill="#791e22" stroke="#791e22"></path><path d="M549.7 792.4L638 727.1L598.7 674.8Z" fill="#4e1418" stroke="#4e1418"></path><path d="M598.7 674.8L638 727.1L638 549.8Z" fill="#972527" stroke="#972527"></path><path d="M638 150.6L638 62.3L546.7 117.3Z" fill="#270908" stroke="#270908"></path><path d="M356.3 855.7L452.3 870.4L361 844.7Z" fill="#1c0000" stroke="#1c0000"></path><path d="M549.7 792.4L638 810.4L638 727.1Z" fill="#a62929" stroke="#a62929"></path><path d="M64.3 891.7L150.3 866.4L87.3 668.1Z" fill="#882125" stroke="#882125"></path><path d="M356.3 855.7L372.3 1013L452.3 870.4Z" fill="#401115" stroke="#401115"></path><path d="M160.3 0L0 0L63.3 114.3Z" fill="#5c171c" stroke="#5c171c"></path><path d="M150.3 866.4L221.7 912.7L316 823.4Z" fill="#a62929" stroke="#a62929"></path><path d="M638 62.3L638 0L521.7 0Z" fill="#5c171c" stroke="#5c171c"></path><path d="M585.7 871.7L638 810.4L549.7 792.4Z" fill="#270908" stroke="#270908"></path><path d="M452.3 870.4L585.7 871.7L549.7 792.4Z" fill="#a62929" stroke="#a62929"></path><path d="M638 952.7L585.7 871.7L536.7 1013Z" fill="#882125" stroke="#882125"></path><path d="M150.3 866.4L95.3 1013L221.7 912.7Z" fill="#270908" stroke="#270908"></path><path d="M0 687.1L64.3 891.7L87.3 668.1Z" fill="#972527" stroke="#972527"></path><path d="M0 687.1L0 873.4L64.3 891.7Z" fill="#401115" stroke="#401115"></path><path d="M242.7 1013L221.7 912.7L95.3 1013Z" fill="#1c0000" stroke="#1c0000"></path><path d="M242.7 1013L369 1013L221.7 912.7Z" fill="#791e22" stroke="#791e22"></path><path d="M221.7 912.7L369 1013L356.3 855.7Z" fill="#330e10" stroke="#330e10"></path><path d="M369 1013L372.3 1013L356.3 855.7Z" fill="#401115" stroke="#401115"></path><path d="M95.3 1013L150.3 866.4L64.3 891.7Z" fill="#270908" stroke="#270908"></path><path d="M536.7 1013L585.7 871.7L452.3 870.4Z" fill="#401115" stroke="#401115"></path><path d="M585.7 871.7L638 952.7L638 810.4Z" fill="#5c171c" stroke="#5c171c"></path><path d="M0 873.4L0 964.7L64.3 891.7Z" fill="#401115" stroke="#401115"></path><path d="M0 964.7L95.3 1013L64.3 891.7Z" fill="#882125" stroke="#882125"></path><path d="M372.3 1013L536.7 1013L452.3 870.4Z" fill="#6a1a1f" stroke="#6a1a1f"></path><path d="M0 964.7L0 1013L95.3 1013Z" fill="#330e10" stroke="#330e10"></path><path d="M536.7 1013L638 1013L638 952.7Z" fill="#4e1418" stroke="#4e1418"></path></g></svg>